<svg width="17" height="16" viewBox="0 0 17 16" fill="none" xmlns="http://www.w3.org/2000/svg">
<path d="M15.3387 11.7187C15.0579 11.7165 14.8207 11.6171 14.6273 11.4206C14.4338 11.2241 14.338 11.0011 14.34 10.7515L14.3936 3.87219L2.69726 15.3875C2.49289 15.5887 2.25811 15.6883 1.99293 15.6862C1.72774 15.6842 1.49454 15.5809 1.29333 15.3766C1.09212 15.1722 0.992553 14.9374 0.994622 14.6722C0.99669 14.407 1.09991 14.1738 1.30428 13.9726L13.0007 2.45731L6.07459 2.40328C5.7938 2.40109 5.56448 2.3018 5.38661 2.10541C5.20874 1.90902 5.1209 1.67043 5.12309 1.38965C5.14075 1.12458 5.24784 0.895314 5.44435 0.701845C5.64087 0.508375 5.86392 0.412613 6.1135 0.41456L15.4263 0.487202C15.5823 0.48842 15.7147 0.512852 15.8235 0.560502C15.9323 0.608151 16.0332 0.67914 16.126 0.773466C16.2189 0.867791 16.2883 0.969733 16.3343 1.07929C16.3802 1.18885 16.4026 1.32163 16.4013 1.47762L16.3291 10.7436C16.3269 11.0244 16.2315 11.2576 16.0428 11.4434C15.8542 11.6291 15.6194 11.7209 15.3387 11.7187Z" fill="white"/>
</svg>
