<svg width="20" height="21" viewBox="0 0 20 21" fill="none" xmlns="http://www.w3.org/2000/svg">
<path d="M10 20.1954C8.6 20.1954 7.29167 19.9422 6.075 19.4359C4.85833 18.9296 3.8 18.2425 2.9 17.3745C2 16.5065 1.29167 15.4818 0.775 14.3004C0.258333 13.119 0 11.8533 0 10.5031C0 9.15292 0.258333 7.89517 0.775 6.72984C1.29167 5.56451 2 4.54787 2.9 3.6799C3.8 2.81193 4.85833 2.13283 6.075 1.64259C7.29167 1.15235 8.6 0.907227 10 0.907227C11.4 0.907227 12.7083 1.15235 13.925 1.64259C15.1417 2.13283 16.2 2.81193 17.1 3.6799C18 4.54787 18.7083 5.56451 19.225 6.72984C19.7417 7.89517 20 9.15292 20 10.5031C20 11.8533 19.7417 13.119 19.225 14.3004C18.7083 15.4818 18 16.5065 17.1 17.3745C16.2 18.2425 15.1417 18.9296 13.925 19.4359C12.7083 19.9422 11.4 20.1954 10 20.1954ZM10 18.797C10.5833 18.2184 11.0708 17.5553 11.4625 16.8079C11.8542 16.0605 12.175 15.1724 12.425 14.1437H7.6C7.83333 15.1081 8.14583 15.9761 8.5375 16.7476C8.92917 17.5192 9.41667 18.2023 10 18.797ZM7.875 18.5077C7.45833 17.8969 7.1 17.2379 6.8 16.5306C6.5 15.8234 6.25 15.0278 6.05 14.1437H2.3C2.93333 15.2849 3.66667 16.181 4.5 16.832C5.33333 17.483 6.45833 18.0415 7.875 18.5077ZM12.15 18.4836C13.35 18.1139 14.4292 17.5593 15.3875 16.82C16.3458 16.0806 17.1167 15.1885 17.7 14.1437H13.975C13.7583 15.0117 13.5042 15.7993 13.2125 16.5065C12.9208 17.2138 12.5667 17.8728 12.15 18.4836ZM1.8 12.6971H5.775C5.725 12.2631 5.69583 11.8734 5.6875 11.5278C5.67917 11.1822 5.675 10.8406 5.675 10.5031C5.675 10.1013 5.68333 9.74362 5.7 9.43018C5.71667 9.11675 5.75 8.76715 5.8 8.38139H1.8C1.68333 8.76715 1.60417 9.11273 1.5625 9.41813C1.52083 9.72353 1.5 10.0852 1.5 10.5031C1.5 10.921 1.52083 11.2947 1.5625 11.6242C1.60417 11.9537 1.68333 12.3114 1.8 12.6971ZM7.325 12.6971H12.7C12.7667 12.1988 12.8083 11.793 12.825 11.4796C12.8417 11.1661 12.85 10.8406 12.85 10.5031C12.85 10.1816 12.8417 9.8722 12.825 9.57485C12.8083 9.27749 12.7667 8.87967 12.7 8.38139H7.325C7.25833 8.87967 7.21667 9.27749 7.2 9.57485C7.18333 9.8722 7.175 10.1816 7.175 10.5031C7.175 10.8406 7.18333 11.1661 7.2 11.4796C7.21667 11.793 7.25833 12.1988 7.325 12.6971ZM14.2 12.6971H18.2C18.3167 12.3114 18.3958 11.9537 18.4375 11.6242C18.4792 11.2947 18.5 10.921 18.5 10.5031C18.5 10.0852 18.4792 9.72353 18.4375 9.41813C18.3958 9.11273 18.3167 8.76715 18.2 8.38139H14.225C14.275 8.94396 14.3083 9.37393 14.325 9.67129C14.3417 9.96865 14.35 10.2459 14.35 10.5031C14.35 10.8567 14.3375 11.1902 14.3125 11.5037C14.2875 11.8171 14.25 12.2149 14.2 12.6971ZM13.95 6.93478H17.7C17.15 5.82571 16.3958 4.90148 15.4375 4.1621C14.4792 3.42272 13.375 2.90034 12.125 2.59494C12.5417 3.18966 12.8958 3.8326 13.1875 4.52376C13.4792 5.21492 13.7333 6.01859 13.95 6.93478ZM7.6 6.93478H12.45C12.2667 6.08288 11.9583 5.25912 11.525 4.46348C11.0917 3.66785 10.5833 2.96463 10 2.35384C9.46667 2.78782 9.01667 3.35843 8.65 4.06566C8.28333 4.7729 7.93333 5.72927 7.6 6.93478ZM2.3 6.93478H6.075C6.25833 6.06681 6.49167 5.29127 6.775 4.60814C7.05833 3.92502 7.41667 3.26199 7.85 2.61905C6.6 2.92445 5.50833 3.4388 4.575 4.1621C3.64167 4.88541 2.88333 5.80964 2.3 6.93478Z" fill="white"/>
</svg>
