<svg width="24" height="20" viewBox="0 0 24 20" fill="none" xmlns="http://www.w3.org/2000/svg">
<path d="M1.8 19.441C1.32 19.441 0.9 19.2602 0.54 18.8985C0.18 18.5369 0 18.1149 0 17.6327V1.9611C0 1.47889 0.18 1.05696 0.54 0.695312C0.9 0.333659 1.32 0.152832 1.8 0.152832H22.2C22.68 0.152832 23.1 0.333659 23.46 0.695312C23.82 1.05696 24 1.47889 24 1.9611V17.6327C24 18.1149 23.82 18.5369 23.46 18.8985C23.1 19.2602 22.68 19.441 22.2 19.441H1.8ZM12 10.1586C12.1 10.1586 12.185 10.1435 12.255 10.1134C12.325 10.0832 12.4 10.0481 12.48 10.0079L21.9 3.82964C22 3.76936 22.075 3.689 22.125 3.58854C22.175 3.48808 22.2 3.37757 22.2 3.25702C22.2 2.99583 22.085 2.78989 21.855 2.6392C21.625 2.48851 21.39 2.49353 21.15 2.65427L12 8.53113L2.88 2.65427C2.64 2.49353 2.4 2.48349 2.16 2.62413C1.92 2.76477 1.8 2.96569 1.8 3.22688C1.8 3.34743 1.83 3.46296 1.89 3.57347C1.95 3.68397 2.02 3.76936 2.1 3.82964L11.52 10.0079C11.6 10.0481 11.675 10.0832 11.745 10.1134C11.815 10.1435 11.9 10.1586 12 10.1586Z" fill="white"/>
</svg>
