<svg width="20" height="20" viewBox="0 0 20 20" fill="none" xmlns="http://www.w3.org/2000/svg">
<path d="M18.7778 19.6866L11.4722 12.6411C10.9167 13.1054 10.2689 13.4671 9.52892 13.726C8.78893 13.985 8.00152 14.1145 7.16667 14.1145C5.16367 14.1145 3.46847 13.4447 2.08108 12.1053C0.693695 10.7658 0 9.14955 0 7.25645C0 5.36335 0.694444 3.74708 2.08333 2.40762C3.47222 1.06817 5.15278 0.398438 7.125 0.398438C9.09722 0.398438 10.7731 1.06817 12.1528 2.40762C13.5324 3.74708 14.2222 5.36469 14.2222 7.26047C14.2222 8.02575 14.0926 8.76557 13.8333 9.47995C13.5741 10.1943 13.1852 10.8641 12.6667 11.4891L20 18.5079L18.7778 19.6866ZM7.13889 12.5071C8.64352 12.5071 9.92245 11.9937 10.9757 10.9667C12.0289 9.93983 12.5556 8.70306 12.5556 7.25645C12.5556 5.80984 12.0289 4.57307 10.9757 3.54616C9.92245 2.51924 8.64352 2.00578 7.13889 2.00578C5.61883 2.00578 4.32678 2.51924 3.26272 3.54616C2.19868 4.57307 1.66667 5.80984 1.66667 7.25645C1.66667 8.70306 2.19868 9.93983 3.26272 10.9667C4.32678 11.9937 5.61883 12.5071 7.13889 12.5071Z" fill="white"/>
</svg>
